<svg width="14" height="14" viewBox="0 0 14 14" fill="none" xmlns="http://www.w3.org/2000/svg">
<path fill-rule="evenodd" clip-rule="evenodd" d="M1.30937 12.6907C2.28671 13.6667 3.85737 13.6667 7.00004 13.6667C10.1427 13.6667 11.714 13.6667 12.69 12.69C13.6667 11.7147 13.6667 10.1427 13.6667 7C13.6667 3.85733 13.6667 2.286 12.69 1.30933C11.7147 0.333333 10.1427 0.333333 7.00004 0.333333C3.85737 0.333333 2.28604 0.333333 1.30937 1.30933C0.333374 2.28667 0.333374 3.85733 0.333374 7C0.333374 10.1427 0.333374 11.7147 1.30937 12.6907ZM11.5 9.66667C11.5 9.79927 11.4474 9.92645 11.3536 10.0202C11.2598 10.114 11.1326 10.1667 11 10.1667H3.00004C2.86743 10.1667 2.74026 10.114 2.64649 10.0202C2.55272 9.92645 2.50004 9.79927 2.50004 9.66667C2.50004 9.53406 2.55272 9.40688 2.64649 9.31311C2.74026 9.21935 2.86743 9.16667 3.00004 9.16667H11C11.1326 9.16667 11.2598 9.21935 11.3536 9.31311C11.4474 9.40688 11.5 9.53406 11.5 9.66667ZM11 7.5C11.1326 7.5 11.2598 7.44732 11.3536 7.35355C11.4474 7.25978 11.5 7.13261 11.5 7C11.5 6.86739 11.4474 6.74021 11.3536 6.64645C11.2598 6.55268 11.1326 6.5 11 6.5H3.00004C2.86743 6.5 2.74026 6.55268 2.64649 6.64645C2.55272 6.74021 2.50004 6.86739 2.50004 7C2.50004 7.13261 2.55272 7.25978 2.64649 7.35355C2.74026 7.44732 2.86743 7.5 3.00004 7.5H11ZM11.5 4.33333C11.5 4.46594 11.4474 4.59312 11.3536 4.68689C11.2598 4.78065 11.1326 4.83333 11 4.83333H3.00004C2.86743 4.83333 2.74026 4.78065 2.64649 4.68689C2.55272 4.59312 2.50004 4.46594 2.50004 4.33333C2.50004 4.20072 2.55272 4.07355 2.64649 3.97978C2.74026 3.88601 2.86743 3.83333 3.00004 3.83333H11C11.1326 3.83333 11.2598 3.88601 11.3536 3.97978C11.4474 4.07355 11.5 4.20072 11.5 4.33333Z" fill="#4CA15E"/>
</svg>
