<svg width="16" height="16" viewBox="0 0 16 16" fill="none" xmlns="http://www.w3.org/2000/svg">
<path d="M8 0C6.41775 0 4.87103 0.469192 3.55544 1.34824C2.23985 2.22729 1.21447 3.47672 0.608967 4.93853C0.00346614 6.40034 -0.15496 8.00887 0.153721 9.56072C0.462403 11.1126 1.22433 12.538 2.34315 13.6569C3.46197 14.7757 4.88743 15.5376 6.43928 15.8463C7.99113 16.155 9.59966 15.9965 11.0615 15.391C12.5233 14.7855 13.7727 13.7602 14.6518 12.4446C15.5308 11.129 16 9.58225 16 8C15.9959 5.87954 15.1517 3.84712 13.6523 2.34772C12.1529 0.848331 10.1205 0.00414558 8 0ZM8 15.0588C6.6039 15.0588 5.23915 14.6448 4.07833 13.8692C2.91751 13.0936 2.01277 11.9911 1.4785 10.7013C0.944235 9.41146 0.804447 7.99217 1.07681 6.62289C1.34918 5.25361 2.02147 3.99585 3.00866 3.00866C3.99585 2.02146 5.25362 1.34918 6.62289 1.07681C7.99217 0.804443 9.41146 0.944232 10.7013 1.4785C11.9911 2.01276 13.0936 2.91751 13.8692 4.07833C14.6448 5.23914 15.0588 6.6039 15.0588 8C15.0567 9.87148 14.3124 11.6657 12.989 12.989C11.6657 14.3124 9.87148 15.0567 8 15.0588ZM5.33334 8C5.33334 8.55968 5.50944 9.10518 5.83669 9.55922C6.16394 10.0133 6.62576 10.3528 7.15673 10.5298C7.68769 10.7068 8.26089 10.7122 8.79511 10.5454C9.32934 10.3785 9.79752 10.0477 10.1333 9.6C10.2082 9.50015 10.3197 9.43414 10.4433 9.41649C10.5668 9.39884 10.6923 9.43099 10.7922 9.50588C10.892 9.58076 10.958 9.69225 10.9757 9.8158C10.9933 9.93935 10.9612 10.0649 10.8863 10.1647C10.4319 10.7705 9.79852 11.218 9.07574 11.4437C8.35296 11.6695 7.57747 11.6622 6.8591 11.4227C6.14074 11.1832 5.51592 10.7238 5.07317 10.1095C4.63041 9.49525 4.39216 8.75722 4.39216 8C4.39216 7.24277 4.63041 6.50475 5.07317 5.89046C5.51592 5.27616 6.14074 4.81675 6.8591 4.5773C7.57747 4.33784 8.35296 4.33048 9.07574 4.55626C9.79852 4.78204 10.4319 5.22951 10.8863 5.83529C10.9234 5.88473 10.9503 5.94099 10.9657 6.00085C10.981 6.06072 10.9844 6.12302 10.9757 6.1842C10.9669 6.24537 10.9462 6.30423 10.9147 6.35741C10.8832 6.41058 10.8416 6.45704 10.7922 6.49412C10.7427 6.5312 10.6865 6.55817 10.6266 6.57351C10.5667 6.58885 10.5044 6.59224 10.4433 6.5835C10.3821 6.57476 10.3232 6.55406 10.27 6.52257C10.2169 6.49109 10.1704 6.44944 10.1333 6.4C9.79752 5.95225 9.32934 5.62151 8.79511 5.45463C8.26089 5.28775 7.68769 5.29319 7.15673 5.47018C6.62576 5.64716 6.16394 5.98673 5.83669 6.44077C5.50944 6.89481 5.33334 7.44031 5.33334 8Z" fill="#F9F9F9"/>
</svg>
