<svg width="8" height="8" viewBox="0 0 8 8" fill="none" xmlns="http://www.w3.org/2000/svg">
<path d="M4 0.5C3.27092 0.50086 2.57195 0.790868 2.05641 1.30641C1.54087 1.82195 1.25086 2.52092 1.25 3.25C1.24913 3.84581 1.44375 4.42545 1.804 4.9C1.804 4.9 1.879 4.99875 1.89125 5.013L4 7.5L6.10975 5.01175C6.12075 4.9985 6.196 4.9 6.196 4.9L6.19625 4.89925C6.55633 4.4249 6.75086 3.84553 6.75 3.25C6.74914 2.52092 6.45914 1.82195 5.9436 1.30641C5.42806 0.790868 4.72908 0.50086 4 0.5ZM4 4.25C3.80222 4.25 3.60888 4.19135 3.44443 4.08147C3.27998 3.97159 3.15181 3.81541 3.07612 3.63268C3.00044 3.44996 2.98063 3.24889 3.01922 3.05491C3.0578 2.86093 3.15304 2.68275 3.2929 2.54289C3.43275 2.40304 3.61093 2.3078 3.80491 2.26921C3.99889 2.23063 4.19996 2.25043 4.38269 2.32612C4.56541 2.40181 4.72159 2.52998 4.83147 2.69443C4.94135 2.85888 5 3.05222 5 3.25C4.99967 3.51512 4.89421 3.76928 4.70674 3.95674C4.51928 4.14421 4.26512 4.24967 4 4.25Z" fill="#4CA15E"/>
</svg>
