<svg width="8" height="8" viewBox="0 0 8 8" fill="none" xmlns="http://www.w3.org/2000/svg">
<path d="M5.51863 4.302L5.36696 4.453C5.36696 4.453 5.00596 4.81166 4.02096 3.83233C3.03596 2.853 3.39696 2.49433 3.39696 2.49433L3.49229 2.399C3.72796 2.165 3.75029 1.789 3.54463 1.51433L3.12463 0.953332C2.86996 0.613332 2.37829 0.568332 2.08663 0.858332L1.56329 1.37833C1.41896 1.52233 1.32229 1.70833 1.33396 1.915C1.36396 2.444 1.60329 3.58167 2.93796 4.909C4.35363 6.31633 5.68196 6.37233 6.22496 6.32166C6.39696 6.30566 6.54629 6.21833 6.66663 6.09833L7.13996 5.62766C7.45996 5.31 7.36996 4.765 6.96063 4.54267L6.32396 4.19633C6.05529 4.05066 5.72863 4.09333 5.51863 4.302Z" fill="#4CA15E"/>
</svg>
